HIERARCHY
ROOT Hips
{
	OFFSET 0.000000 121.760803 0.000000
	CHANNELS 6 Xposition Yposition Zposition Xrotation Yrotation Zrotation 
	JOINT Spine
	{
		OFFSET 0.072000 7.257294 -0.789700
		CHANNELS 3 Xrotation Yrotation Zrotation
		JOINT Spine1
		{
			OFFSET 0.000000 12.508769 -0.658067
			CHANNELS 3 Xrotation Yrotation Zrotation
			JOINT Spine1_split
			{
				OFFSET 0.000000 12.508769 -0.658067
				CHANNELS 3 Xrotation Yrotation Zrotation
				JOINT Spine2
				{
					OFFSET 0.000000 12.508769 -0.658067
					CHANNELS 3 Xrotation Yrotation Zrotation
					JOINT Neck
					{
						OFFSET 0.000000 14.033295 7.520400
						CHANNELS 3 Xrotation Yrotation Zrotation
						JOINT Head
						{
							OFFSET 0.000000 8.198502 5.703100
							CHANNELS 3 Xrotation Yrotation Zrotation
							JOINT HeadTop_End
							{
								OFFSET 0.000000 17.760803 13.332701
								CHANNELS 3 Xrotation Yrotation Zrotation
								End Site
								{
									OFFSET 0.000000 0.000000 0.000000
								}
							}
						}
					}
					JOINT LeftShoulder
					{
						OFFSET 6.292450 5.785301 -0.669000
						CHANNELS 3 Xrotation Yrotation Zrotation
						JOINT LeftShoulder_split
						{
							OFFSET 6.292450 5.785301 -0.669000
							CHANNELS 3 Xrotation Yrotation Zrotation
							JOINT LeftArm
							{
								OFFSET 13.907140 -6.093903 1.965100
								CHANNELS 3 Xrotation Yrotation Zrotation
								JOINT LeftForeArm
								{
									OFFSET 34.140198 0.000000 0.000000
									CHANNELS 3 Xrotation Yrotation Zrotation
									JOINT LeftHand
									{
										OFFSET 40.960209 0.000000 0.000000
										CHANNELS 3 Xrotation Yrotation Zrotation
										JOINT LeftHandThumb1
										{
											OFFSET 10.006996 -7.170425 9.573125
											CHANNELS 3 Xrotation Yrotation Zrotation
											JOINT LeftHandThumb2
											{
												OFFSET 1.835007 -1.059448 1.059443
												CHANNELS 3 Xrotation Yrotation Zrotation
												JOINT LeftHandThumb3
												{
													OFFSET 2.112267 -1.219513 1.219518
													CHANNELS 3 Xrotation Yrotation Zrotation
													JOINT LeftHandThumb4
													{
														OFFSET 4.843811 -2.796570 2.796576
														CHANNELS 3 Xrotation Yrotation Zrotation
														End Site
														{
															OFFSET 0.000000 0.000000 0.000000
														}
													}
												}
											}
										}
										JOINT LeftHandIndex1
										{
											OFFSET 18.389847 -0.922348 4.596882
											CHANNELS 3 Xrotation Yrotation Zrotation
											JOINT LeftHandIndex2
											{
												OFFSET 4.711273 0.000000 0.000000
												CHANNELS 3 Xrotation Yrotation Zrotation
												JOINT LeftHandIndex3
												{
													OFFSET 2.886131 0.000000 0.000000
													CHANNELS 3 Xrotation Yrotation Zrotation
													JOINT LeftHandIndex4
													{
														OFFSET 6.145912 0.000000 0.000000
														CHANNELS 3 Xrotation Yrotation Zrotation
														End Site
														{
															OFFSET 0.000000 0.000000 0.000000
														}
													}
												}
											}
										}
										JOINT LeftHandMiddle1
										{
											OFFSET 18.013008 0.000000 0.000000
											CHANNELS 3 Xrotation Yrotation Zrotation
											JOINT LeftHandMiddle2
											{
												OFFSET 4.946693 0.000000 0.000000
												CHANNELS 3 Xrotation Yrotation Zrotation
												JOINT LeftHandMiddle3
												{
													OFFSET 3.342232 0.000000 0.000000
													CHANNELS 3 Xrotation Yrotation Zrotation
													JOINT LeftHandMiddle4
													{
														OFFSET 4.461754 0.000000 0.000000
														CHANNELS 3 Xrotation Yrotation Zrotation
														End Site
														{
															OFFSET 0.000000 0.000000 0.000000
														}
													}
												}
											}
										}
										JOINT LeftHandRing1
										{
											OFFSET 15.849892 -0.102921 -4.126150
											CHANNELS 3 Xrotation Yrotation Zrotation
											JOINT LeftHandRing2
											{
												OFFSET 3.527054 0.000000 0.000000
												CHANNELS 3 Xrotation Yrotation Zrotation
												JOINT LeftHandRing3
												{
													OFFSET 2.961098 0.000000 0.000000
													CHANNELS 3 Xrotation Yrotation Zrotation
													JOINT LeftHandRing4
													{
														OFFSET 4.927200 0.000000 0.000000
														CHANNELS 3 Xrotation Yrotation Zrotation
														End Site
														{
															OFFSET 0.000000 0.000000 0.000000
														}
													}
												}
											}
										}
										JOINT LeftHandPinky1
										{
											OFFSET 12.791824 -0.832031 -6.799156
											CHANNELS 3 Xrotation Yrotation Zrotation
											JOINT LeftHandPinky2
											{
												OFFSET 3.327133 0.000000 0.000000
												CHANNELS 3 Xrotation Yrotation Zrotation
												JOINT LeftHandPinky3
												{
													OFFSET 3.014900 0.000000 0.000000
													CHANNELS 3 Xrotation Yrotation Zrotation
													JOINT LeftHandPinky4
													{
														OFFSET 5.847786 0.000000 0.000000
														CHANNELS 3 Xrotation Yrotation Zrotation
														End Site
														{
															OFFSET 0.000000 0.000000 0.000000
														}
													}
												}
											}
										}
									}
								}
							}
						}
					}
					JOINT RightShoulder
					{
						OFFSET -6.292450 5.785301 -0.669000
						CHANNELS 3 Xrotation Yrotation Zrotation
						JOINT RightShoulder_split
						{
							OFFSET -6.292450 5.785301 -0.669000
							CHANNELS 3 Xrotation Yrotation Zrotation
							JOINT RightArm
							{
								OFFSET -13.907140 -6.093903 1.965100
								CHANNELS 3 Xrotation Yrotation Zrotation
								JOINT RightForeArm
								{
									OFFSET -34.140198 0.000000 0.000000
									CHANNELS 3 Xrotation Yrotation Zrotation
									JOINT RightHand
									{
										OFFSET -40.960209 0.000000 0.000000
										CHANNELS 3 Xrotation Yrotation Zrotation
										JOINT RightHandThumb1
										{
											OFFSET -10.007050 -7.170456 9.573117
											CHANNELS 3 Xrotation Yrotation Zrotation
											JOINT RightHandThumb2
											{
												OFFSET -1.835007 -1.059448 1.059443
												CHANNELS 3 Xrotation Yrotation Zrotation
												JOINT RightHandThumb3
												{
													OFFSET -2.112267 -1.219513 1.219518
													CHANNELS 3 Xrotation Yrotation Zrotation
													JOINT RightHandThumb4
													{
														OFFSET -4.843834 -2.796585 2.796590
														CHANNELS 3 Xrotation Yrotation Zrotation
														End Site
														{
															OFFSET 0.000000 0.000000 0.000000
														}
													}
												}
											}
										}
										JOINT RightHandIndex1
										{
											OFFSET -18.389870 -0.922424 4.596786
											CHANNELS 3 Xrotation Yrotation Zrotation
											JOINT RightHandIndex2
											{
												OFFSET -4.711273 0.000000 0.000000
												CHANNELS 3 Xrotation Yrotation Zrotation
												JOINT RightHandIndex3
												{
													OFFSET -2.886131 0.000000 0.000000
													CHANNELS 3 Xrotation Yrotation Zrotation
													JOINT RightHandIndex4
													{
														OFFSET -6.145920 0.000000 0.000000
														CHANNELS 3 Xrotation Yrotation Zrotation
														End Site
														{
															OFFSET 0.000000 0.000000 0.000000
														}
													}
												}
											}
										}
										JOINT RightHandMiddle1
										{
											OFFSET -18.013008 0.000000 0.000000
											CHANNELS 3 Xrotation Yrotation Zrotation
											JOINT RightHandMiddle2
											{
												OFFSET -4.946693 0.000000 0.000000
												CHANNELS 3 Xrotation Yrotation Zrotation
												JOINT RightHandMiddle3
												{
													OFFSET -3.342232 0.000000 0.000000
													CHANNELS 3 Xrotation Yrotation Zrotation
													JOINT RightHandMiddle4
													{
														OFFSET -4.461754 0.000000 0.000000
														CHANNELS 3 Xrotation Yrotation Zrotation
														End Site
														{
															OFFSET 0.000000 0.000000 0.000000
														}
													}
												}
											}
										}
										JOINT RightHandRing1
										{
											OFFSET -15.849876 -0.102936 -4.126237
											CHANNELS 3 Xrotation Yrotation Zrotation
											JOINT RightHandRing2
											{
												OFFSET -3.527054 0.000000 0.000000
												CHANNELS 3 Xrotation Yrotation Zrotation
												JOINT RightHandRing3
												{
													OFFSET -2.961098 0.000000 0.000000
													CHANNELS 3 Xrotation Yrotation Zrotation
													JOINT RightHandRing4
													{
														OFFSET -4.927200 0.000000 0.000000
														CHANNELS 3 Xrotation Yrotation Zrotation
														End Site
														{
															OFFSET 0.000000 0.000000 0.000000
														}
													}
												}
											}
										}
										JOINT RightHandPinky1
										{
											OFFSET -12.791786 -0.832077 -6.799222
											CHANNELS 3 Xrotation Yrotation Zrotation
											JOINT RightHandPinky2
											{
												OFFSET -3.327133 0.000000 0.000000
												CHANNELS 3 Xrotation Yrotation Zrotation
												JOINT RightHandPinky3
												{
													OFFSET -3.014900 0.000000 0.000000
													CHANNELS 3 Xrotation Yrotation Zrotation
													JOINT RightHandPinky4
													{
														OFFSET -5.847786 0.000000 0.000000
														CHANNELS 3 Xrotation Yrotation Zrotation
														End Site
														{
															OFFSET 0.000000 0.000000 0.000000
														}
													}
												}
											}
										}
									}
								}
							}
						}
					}
				}
			}
		}
	}
	JOINT LeftUpLeg
	{
		OFFSET 13.026900 -6.336304 -1.092800
		CHANNELS 3 Xrotation Yrotation Zrotation
		JOINT LeftLeg
		{
			OFFSET 0.524474 -46.096886 9.782700
			CHANNELS 3 Xrotation Yrotation Zrotation
			JOINT LeftFoot
			{
				OFFSET -0.524474 -53.427422 -12.948200
				CHANNELS 3 Xrotation Yrotation Zrotation
				JOINT LeftToeBase
				{
					OFFSET 0.192200 -14.009700 16.364100
					CHANNELS 3 Xrotation Yrotation Zrotation
					JOINT LeftToe_End
					{
						OFFSET -1.784700 -0.561700 9.474800
						CHANNELS 3 Xrotation Yrotation Zrotation
						End Site
						{
							OFFSET 0.000000 0.000000 0.000000
						}
					}
				}
			}
		}
	}
	JOINT RightUpLeg
	{
		OFFSET -12.883000 -6.336304 -1.092800
		CHANNELS 3 Xrotation Yrotation Zrotation
		JOINT RightLeg
		{
			OFFSET -0.524587 -46.096825 9.782800
			CHANNELS 3 Xrotation Yrotation Zrotation
			JOINT RightFoot
			{
				OFFSET 0.524587 -53.427383 -12.948300
				CHANNELS 3 Xrotation Yrotation Zrotation
				JOINT RightToeBase
				{
					OFFSET -0.192200 -14.009700 16.364100
					CHANNELS 3 Xrotation Yrotation Zrotation
					JOINT RightToe_End
					{
						OFFSET 1.784700 -0.561700 9.474800
						CHANNELS 3 Xrotation Yrotation Zrotation
						End Site
						{
							OFFSET 0.000000 0.000000 0.000000
						}
					}
				}
			}
		}
	}
}
MOTION
Frames: 4
Frame Time: 0.016667
-0.539634 107.954178 0.571728 -6.104506 -43.213931 -4.125679 5.827373 4.833238 -1.166988 11.836807 9.036861 -3.086774 0.000000 0.000000 0.000000 11.836806 9.036862 -3.086780 -4.023269 -0.974177 0.382903 -6.479894 20.161243 -0.594156 -0.000000 0.000000 0.000000 1.392486 -0.696034 -7.877869 0.000000 0.000000 0.000000 -14.270851 2.385512 -63.280746 9.855329 -47.499342 5.919331 16.172174 0.901944 18.796322 9.163413 4.814147 -5.499012 -0.335224 0.032294 0.783656 0.000003 0.000014 0.000003 -0.000001 -0.000002 -0.000000 -0.901997 -6.980960 -3.808335 0.033590 0.804074 -16.418743 -0.000005 -0.000003 -0.000000 0.000000 0.000003 -0.000003 1.947933 9.683064 -14.539692 -0.463665 -1.564318 -21.881324 -0.000007 -0.000008 -0.000002 -0.000001 0.000001 -0.000000 2.605957 14.896793 -31.345196 -0.576904 -2.712550 -32.011416 0.000003 0.000007 0.000004 0.000000 0.000000 0.000001 4.170699 18.494996 -34.987262 -0.707102 -5.788800 -39.372820 -0.000001 -0.000007 0.000000 -0.000002 0.000001 0.000003 1.409758 9.464718 9.801443 0.000000 0.000000 0.000000 1.234153 -24.280851 60.535516 -6.660179 41.888997 8.039915 6.224116 12.306674 11.672642 -8.895695 -4.903135 -0.383774 7.905223 -19.193011 -2.856853 0.000000 0.000005 0.000008 0.000001 0.000000 0.000000 -1.085597 -1.215454 4.525545 0.141674 -1.114001 16.942817 0.000001 0.000001 -0.000011 0.000001 0.000004 -0.000000 -0.663704 -2.903876 12.731735 -0.661479 1.814910 30.579023 0.000002 -0.000003 -0.000004 0.000002 -0.000002 -0.000000 2.423536 -7.404547 21.763325 -0.989844 3.764221 37.431219 0.000003 -0.000003 0.000001 -0.000001 0.000001 0.000000 3.480946 -10.055082 24.322580 -1.458334 7.871965 41.091986 -0.000000 -0.000002 0.000007 -0.000000 -0.000003 -0.000001 -28.239748 6.262311 13.301368 32.809886 -15.349165 -0.389560 -1.987201 1.875665 -7.315879 -2.319088 -3.216974 0.802955 0.000000 -0.000001 -0.000000 -4.001810 -13.266376 -16.999709 31.815947 -8.643401 -0.391846 -19.548959 -4.347005 18.458332 -1.784972 -0.356706 0.333183 -0.000000 -0.000000 0.000000 
-0.500018 107.725266 0.102354 -4.787857 -41.941507 -3.777895 5.872565 4.768514 -1.105904 11.918894 8.877110 -2.961023 0.000000 0.000000 0.000000 11.918897 8.877111 -2.961025 -4.393509 -1.244333 0.135177 -6.869576 19.864939 -0.425488 -0.000000 -0.000000 0.000000 1.570209 -1.339776 -7.270731 0.000000 0.000000 0.000000 -11.927848 2.709225 -62.623839 11.392375 -50.094909 6.156067 15.214482 1.370631 16.884521 9.193345 5.062675 -5.652784 -0.335227 0.032308 0.783665 0.000003 0.000016 0.000006 0.000001 -0.000002 0.000003 -0.796944 -6.938176 -3.289536 0.025951 0.778751 -16.637006 -0.000004 -0.000004 -0.000003 0.000003 0.000002 0.000001 1.901933 9.732987 -14.095529 -0.466267 -1.570609 -21.943788 -0.000000 -0.000007 -0.000004 0.000002 -0.000001 0.000001 2.724076 14.868104 -31.650414 -0.590215 -2.733309 -32.416481 0.000007 0.000007 0.000002 0.000001 0.000001 0.000001 4.123977 18.303024 -35.054016 -0.711768 -5.794186 -39.703975 -0.000001 -0.000004 0.000000 0.000000 0.000001 0.000001 1.547675 9.347145 9.092338 0.000000 0.000000 0.000000 0.556988 -22.906428 60.241353 -3.542693 42.903891 5.840076 7.677646 11.184460 10.633513 -8.650336 -5.353440 -1.233083 7.621883 -18.559355 -2.849191 -0.000001 0.000004 0.000007 -0.000001 0.000000 0.000001 -1.069535 -1.687650 5.364277 0.057424 -0.857534 19.622039 0.000001 0.000002 -0.000012 0.000000 0.000002 0.000000 -0.869354 -2.826909 14.623773 -0.785352 2.015686 33.206064 0.000002 -0.000007 -0.000005 -0.000001 -0.000001 0.000000 2.549536 -6.904370 24.300650 -1.124985 3.934999 39.943950 0.000003 0.000001 -0.000000 0.000000 -0.000000 0.000002 3.462085 -9.593473 26.501021 -1.572228 7.998017 43.304342 -0.000001 -0.000000 0.000003 -0.000000 -0.000000 0.000002 -30.497741 6.815029 13.776857 33.302650 -13.786877 0.695547 -1.152186 0.265793 -7.235737 -2.261779 -3.137216 0.783545 0.000000 -0.000001 0.000000 -4.833672 -13.363584 -16.368635 32.426248 -8.354401 -0.183672 -19.878246 -4.312947 18.439938 -1.477735 -0.504048 0.325132 -0.000000 0.000001 0.000000 
-0.459498 107.420845 -0.432717 -3.394681 -40.674473 -3.563139 5.920995 4.694476 -1.026503 12.004171 8.695477 -2.784136 0.000000 0.000000 0.000000 12.004169 8.695492 -2.784139 -4.402252 -1.432518 -0.308001 -7.743047 19.546104 -0.146668 0.000000 0.000000 -0.000000 1.744176 -1.717852 -6.596198 0.000000 0.000000 0.000000 -9.656333 2.899163 -62.029299 12.853456 -52.487053 6.201628 14.224882 1.951092 15.624075 9.323765 5.688836 -5.949660 -0.335220 0.032330 0.783673 0.000000 0.000019 0.000007 0.000000 -0.000003 0.000003 -0.782990 -6.833243 -3.456138 0.013091 0.736812 -16.998799 -0.000004 0.000000 -0.000007 -0.000001 0.000000 -0.000001 1.951599 9.750308 -14.576691 -0.472444 -1.585734 -22.093640 0.000001 -0.000006 -0.000002 0.000000 -0.000001 0.000000 3.028768 14.536830 -33.148438 -0.631082 -2.795156 -33.635717 0.000006 0.000003 0.000001 -0.000005 -0.000003 -0.000001 4.069974 17.795430 -35.410901 -0.726083 -5.810328 -40.707480 -0.000005 -0.000007 0.000000 0.000002 0.000001 0.000000 1.665583 8.672809 8.386894 0.000000 0.000000 0.000000 -0.517107 -21.343885 59.835059 -0.867259 43.424044 3.841159 9.539182 9.854840 10.594288 -8.424790 -5.710904 -1.809466 7.405758 -18.074636 -2.841192 0.000001 0.000005 0.000008 0.000000 0.000002 0.000002 -1.037038 -2.082860 6.381571 -0.021289 -0.648457 21.839559 0.000001 0.000001 -0.000010 0.000000 -0.000000 -0.000000 -1.065002 -2.741162 16.363890 -0.904114 2.190632 35.561148 0.000000 -0.000003 -0.000007 -0.000000 -0.000001 -0.000002 2.642170 -6.488009 26.411308 -1.248713 4.078752 42.132923 0.000002 0.000001 0.000004 -0.000001 0.000000 -0.000004 3.458236 -9.126075 28.634622 -1.708307 8.136592 45.833438 -0.000000 0.000001 0.000007 0.000001 0.000001 -0.000002 -32.970423 6.945408 14.653047 33.725521 -11.794073 1.415597 -0.210287 -1.467301 -7.353208 -2.203008 -3.055405 0.763582 0.000000 -0.000003 -0.000000 -6.125300 -14.329552 -15.221760 33.142793 -7.521162 -1.099698 -20.116997 -4.285560 18.634008 -1.456850 -0.644438 0.637624 -0.000000 -0.000003 -0.000000 
-0.440315 107.036209 -1.037533 -1.952233 -39.412910 -3.402265 5.974691 4.613561 -0.965649 12.097062 8.496687 -2.607070 0.000000 0.000000 0.000000 12.097073 8.496694 -2.607072 -4.402067 -1.602832 -0.704803 -8.692109 19.262920 0.109187 0.000001 -0.000000 0.000000 1.920549 -2.204489 -5.946351 0.000000 0.000000 0.000000 -7.362915 3.228192 -61.378238 14.333895 -54.674056 6.292053 13.459746 1.934168 13.988637 9.552672 6.521018 -6.281352 -0.335189 0.032297 0.783662 0.000001 0.000015 0.000008 -0.000001 0.000002 -0.000003 -0.845297 -6.711931 -4.125699 -0.007809 0.670575 -17.571691 -0.000001 -0.000004 0.000002 -0.000002 0.000001 -0.000001 2.022872 9.683094 -15.641251 -0.484463 -1.614736 -22.381762 -0.000003 -0.000007 -0.000003 -0.000002 -0.000001 -0.000000 3.325891 14.067987 -34.924519 -0.685059 -2.872679 -35.188817 0.000000 0.000006 0.000002 0.000000 0.000000 0.000003 4.168831 17.353817 -36.084016 -0.747004 -5.832936 -42.138620 0.000005 -0.000005 -0.000002 0.000000 0.000001 0.000000 1.789075 8.381573 7.651970 0.000000 0.000000 0.000000 -1.251863 -20.026755 59.610599 1.393155 43.948545 1.818037 11.192230 8.642879 11.211476 -7.961402 -5.906361 -2.217068 7.208761 -17.631845 -2.832191 0.000000 0.000004 0.000007 -0.000000 0.000001 0.000000 -0.983916 -2.462980 7.369483 -0.096624 -0.468454 23.776575 0.000001 0.000002 -0.000011 0.000000 0.000000 0.000001 -1.250094 -2.657356 17.910296 -1.020514 2.348286 37.744274 0.000002 -0.000004 -0.000009 -0.000001 0.000001 -0.000001 2.681781 -6.018256 28.379868 -1.362747 4.201920 44.070563 0.000003 0.000001 0.000005 0.000001 -0.000000 -0.000003 3.439291 -8.676254 30.575277 -1.840094 8.259792 48.182979 0.000001 0.000001 0.000004 -0.000001 -0.000000 0.000002 -35.688305 7.133107 15.787969 34.127682 -9.563898 2.025023 0.710897 -3.477040 -7.452291 -2.142968 -2.971903 0.743135 0.000000 0.000001 -0.000000 -7.634514 -15.461552 -13.884368 34.080971 -6.614242 -2.375333 -20.389325 -4.263977 18.925344 -1.488136 -0.716560 0.934770 -0.000000 -0.000000 -0.000000 
